<svg version="1.1" id="Layer_1" xmlns="http://www.w3.org/2000/svg" xmlns:xlink="http://www.w3.org/1999/xlink" x="0px" y="0px"
	 width="100%" viewBox="0 0 1257 2048" xml:space="preserve">

<path fill="#343434" opacity="1.000000" stroke="none" 
	d="
M630.088867,2.876232 
	C632.711853,6.580256 635.585388,10.133488 637.919800,14.011275 
	C666.109314,60.838524 694.197449,107.726784 722.358643,154.571121 
	C737.767944,180.203629 753.257507,205.787949 768.725464,231.385162 
	C792.609314,270.909241 816.548218,310.400146 840.384399,349.952942 
	C863.453247,388.232269 886.366699,426.605255 909.452454,464.874329 
	C926.438538,493.032135 943.664856,521.044983 960.649170,549.203857 
	C974.888367,572.811523 988.848633,596.587341 1003.084534,620.196960 
	C1020.231445,648.634521 1037.611206,676.931641 1054.754883,705.371033 
	C1068.987427,728.981201 1082.935303,752.762878 1097.169800,776.371826 
	C1115.263184,806.380798 1133.590454,836.248718 1151.681274,866.259277 
	C1166.094604,890.169495 1180.213501,914.257324 1194.628296,938.166748 
	C1211.525269,966.193054 1228.605835,994.108582 1245.596069,1022.078613 
	C1249.554688,1028.595459 1253.470215,1035.138550 1257.702759,1041.834839 
	C1258.000000,1042.000000 1258.000000,1042.500000 1257.623657,1042.724487 
	C1255.529297,1042.342896 1253.754395,1041.862305 1252.101807,1041.112183 
	C1211.746948,1022.797729 1171.409058,1004.445679 1131.060059,986.118469 
	C1048.844604,948.774841 966.614624,911.463440 884.409119,874.098206 
	C809.181091,839.904480 733.986389,805.637451 658.751892,771.458069 
	C649.210938,767.123657 639.517273,763.125427 629.557861,758.932251 
	C628.996521,758.866577 628.771790,758.839966 628.703796,758.378601 
	C628.980225,755.121887 629.204407,752.299988 629.204590,749.478088 
	C629.220703,503.023560 629.217102,256.569031 629.255676,10.114503 
	C629.256042,7.701705 629.799133,5.288990 630.088867,2.876232 
z"/>
<path fill="#8C8C8C" opacity="1.000000" stroke="none" 
	d="
M630.022095,2.442694 
	C629.799133,5.288990 629.256042,7.701705 629.255676,10.114503 
	C629.217102,256.569031 629.220703,503.023560 629.204590,749.478088 
	C629.204407,752.299988 628.980225,755.121887 628.361267,758.433533 
	C626.484558,759.508362 625.093567,760.063599 623.731628,760.682678 
	C494.006744,819.655701 364.285278,878.636353 234.560730,937.610168 
	C159.394714,971.781250 84.218636,1005.930237 9.077600,1040.156128 
	C6.493789,1041.333008 4.239484,1043.233276 1.612417,1044.801270 
	C1.393224,1044.806030 1.000000,1045.000000 1.000000,1045.000000 
	C1.000000,1043.611084 1.000000,1042.222168 0.999997,1040.416626 
	C3.311725,1037.102173 5.975765,1034.417969 7.881637,1031.274048 
	C31.184973,992.832397 54.409874,954.343079 77.587280,915.825256 
	C94.770378,887.269165 111.810303,858.627014 128.994354,830.071594 
	C148.037186,798.427368 167.190201,766.849548 186.259583,735.221252 
	C201.354263,710.185364 216.391708,685.114868 231.460861,660.063477 
	C248.569855,631.620972 265.678711,603.178284 282.801239,574.743958 
	C297.889984,549.687073 312.986877,524.635132 328.099335,499.592560 
	C345.477051,470.796143 362.902374,442.028442 380.257751,413.218597 
	C396.511658,386.237213 412.685944,359.207886 428.923553,332.216675 
	C443.871124,307.369904 458.858734,282.547211 473.824493,257.711395 
	C490.191467,230.550293 506.549164,203.383606 522.919189,176.224335 
	C536.900269,153.028595 550.894104,129.840561 564.880249,106.647881 
	C580.063904,81.469383 595.255127,56.295441 610.422546,31.107143 
	C616.309448,21.330833 622.140137,11.520655 627.998230,1.362949 
	C628.750000,1.000000 629.500000,1.000000 630.625000,0.999998 
	C630.651794,1.336381 630.303589,1.672766 630.022095,2.442694 
z"/>
<path fill="#141414" opacity="1.000000" stroke="none" 
	d="
M629.894348,758.971375 
	C639.517273,763.125427 649.210938,767.123657 658.751892,771.458069 
	C733.986389,805.637451 809.181091,839.904480 884.409119,874.098206 
	C966.614624,911.463440 1048.844604,948.774841 1131.060059,986.118469 
	C1171.409058,1004.445679 1211.746948,1022.797729 1252.101807,1041.112183 
	C1253.754395,1041.862305 1255.529297,1042.342896 1257.623657,1042.974487 
	C1258.000000,1043.444458 1258.000000,1043.888916 1257.654541,1044.758057 
	C1255.794434,1045.867798 1254.199463,1046.417236 1252.776489,1047.257690 
	C1214.219238,1070.031006 1175.672241,1092.821655 1137.139404,1115.635864 
	C1103.476196,1135.566772 1069.850952,1155.561768 1036.174927,1175.470947 
	C993.184692,1200.886597 950.147644,1226.222900 907.155029,1251.634399 
	C873.332825,1271.625610 839.559448,1291.699341 805.742615,1311.699707 
	C764.187805,1336.276611 722.623840,1360.838379 681.035950,1385.359253 
	C664.122559,1395.331665 647.135559,1405.179443 630.121582,1414.611816 
	C630.009949,1411.142578 629.914246,1408.145630 629.914062,1405.148682 
	C629.902649,1189.756226 629.898865,974.363831 629.894348,758.971375 
z"/>
<path fill="#3C3C3B" opacity="1.000000" stroke="none" 
	d="
M1258.000000,1165.625000 
	C1254.589355,1170.149048 1250.913696,1174.109863 1247.810791,1178.477661 
	C1226.680176,1208.222046 1205.696167,1238.070190 1184.612549,1267.847900 
	C1170.136719,1288.293213 1155.600586,1308.696045 1141.048706,1329.087524 
	C1118.987793,1360.001465 1096.828857,1390.845703 1074.827637,1421.802124 
	C1058.490112,1444.789429 1042.381104,1467.939209 1026.088867,1490.958862 
	C1010.286072,1513.286987 994.379333,1535.541626 978.518066,1557.828491 
	C965.243835,1576.480103 951.955994,1595.122070 938.699341,1613.786255 
	C928.330811,1628.384277 918.009460,1643.015747 907.651672,1657.621460 
	C894.506836,1676.157104 881.355225,1694.687988 868.190430,1713.209595 
	C854.159302,1732.949951 840.110657,1752.677734 826.067749,1772.409790 
	C801.258423,1807.270142 776.396790,1842.093750 751.655396,1877.002319 
	C735.350464,1900.007690 719.315430,1923.204590 702.983887,1946.190796 
	C680.986206,1977.151855 658.819275,2007.992798 636.726379,2038.886230 
	C634.808655,2041.567627 632.900940,2044.256226 630.330566,2046.783936 
	C629.516235,2044.151489 629.223450,2041.676392 629.223145,2039.201416 
	C629.201599,1873.333862 629.205261,1707.466431 629.190063,1541.598877 
	C629.189819,1538.774414 628.986206,1535.949951 629.240723,1533.056519 
	C631.660950,1531.920898 633.773071,1530.947876 635.766296,1529.772949 
	C652.914734,1519.665527 670.034729,1509.509766 687.176514,1499.390991 
	C712.337952,1484.538208 737.517639,1469.716553 762.676025,1454.858765 
	C787.243896,1440.349731 811.789124,1425.802490 836.354492,1411.289307 
	C861.510132,1396.427368 886.686890,1381.601196 911.838745,1366.732788 
	C939.404358,1350.437622 966.939270,1334.090454 994.510864,1317.805298 
	C1023.949951,1300.417236 1053.425171,1283.090210 1082.867798,1265.707886 
	C1103.160278,1253.727417 1123.408936,1241.672729 1143.703979,1229.696655 
	C1173.002930,1212.407104 1202.305176,1195.123291 1231.651245,1177.914185 
	C1240.355957,1172.809570 1249.212891,1167.964233 1258.000000,1163.000000 
	C1258.000000,1163.750000 1258.000000,1164.500000 1258.000000,1165.625000 
z"/>
<path fill="#8C8C8C" opacity="1.000000" stroke="none" 
	d="
M628.877502,1533.125488 
	C628.986206,1535.949951 629.189819,1538.774414 629.190063,1541.598877 
	C629.205261,1707.466431 629.201599,1873.333862 629.223145,2039.201416 
	C629.223450,2041.676392 629.516235,2044.151489 629.950439,2046.851562 
	C630.203247,2047.649048 630.178162,2048.221436 630.576538,2048.896973 
	C630.250000,2049.000000 629.500000,2049.000000 628.375000,2049.000000 
	C623.163513,2041.674561 618.481445,2034.241211 613.453369,2027.049683 
	C606.470703,2017.062622 599.152161,2007.310913 592.112488,1997.362915 
	C577.252747,1976.364014 562.539246,1955.261353 547.655640,1934.279419 
	C533.312195,1914.058594 518.844482,1893.925781 504.404907,1873.773193 
	C490.373322,1854.190063 476.218506,1834.694458 462.285126,1815.041748 
	C450.411407,1798.294189 438.896545,1781.292114 427.005341,1764.557251 
	C411.142059,1742.232178 395.015198,1720.094482 379.110931,1697.798462 
	C372.985718,1689.211548 367.247253,1680.349731 361.181793,1671.719238 
	C346.097473,1650.255737 330.960938,1628.828613 315.779938,1607.433350 
	C301.244293,1586.947510 286.591095,1566.545166 272.054749,1546.060059 
	C258.862793,1527.469238 245.808029,1508.781128 232.602661,1490.199951 
	C218.249344,1470.003662 203.806763,1449.870605 189.375763,1429.729614 
	C175.335114,1410.133423 161.156982,1390.634888 147.229385,1370.958862 
	C133.865219,1352.078735 120.804657,1332.983887 107.501884,1314.059937 
	C92.306595,1292.443726 77.011116,1270.897949 61.721668,1249.348145 
	C48.836823,1231.187378 35.930275,1213.041748 22.970833,1194.934082 
	C15.873407,1185.017334 8.646565,1175.192993 1.239046,1165.663574 
	C1.000000,1164.933350 1.000000,1163.866577 1.358307,1162.383179 
	C2.151645,1162.470459 2.492171,1163.134521 3.035408,1163.455078 
	C18.390972,1172.515137 33.746857,1181.575073 49.145489,1190.561523 
	C62.738789,1198.494385 76.449684,1206.227539 89.988754,1214.251221 
	C107.408401,1224.574829 124.640739,1235.214966 142.078217,1245.507935 
	C161.230637,1256.813477 180.581024,1267.783569 199.739258,1279.079468 
	C215.809738,1288.554810 231.674652,1298.378418 247.729767,1307.880249 
	C261.012939,1315.741577 274.503235,1323.253052 287.788788,1331.110474 
	C303.846741,1340.607788 319.735657,1350.390747 335.791229,1359.892212 
	C349.076355,1367.754272 362.563446,1375.275269 375.841675,1383.148560 
	C393.280548,1393.489258 410.534210,1404.142822 427.992554,1414.450195 
	C447.161163,1425.767212 466.525879,1436.752197 485.703949,1448.053711 
	C501.350342,1457.274170 516.795532,1466.835571 532.426819,1476.082153 
	C546.140198,1484.194336 560.051636,1491.971680 573.760864,1500.090454 
	C592.190857,1511.004639 610.510559,1522.104980 628.877502,1533.125488 
z"/>

<path fill="#393939" opacity="1.000000" stroke="none" 
	d="
M630.121582,1414.611816 
	C629.195679,1415.074463 627.990479,1415.435669 627.254700,1415.001343 
	C605.888977,1402.393188 584.593872,1389.665405 563.237610,1377.041016 
	C538.166138,1362.220215 513.032104,1347.505127 487.955353,1332.693115 
	C467.448273,1320.580444 447.002045,1308.364746 426.499023,1296.245239 
	C401.285187,1281.341064 376.020508,1266.522827 350.815155,1251.604370 
	C330.175232,1239.388428 309.618195,1227.032471 288.973572,1214.824585 
	C262.338715,1199.074463 235.638351,1183.435181 208.994476,1167.700317 
	C190.056091,1156.515991 171.182495,1145.222046 152.247498,1134.031982 
	C125.465752,1118.204590 98.639893,1102.452026 71.859848,1086.621826 
	C52.926311,1075.429810 34.033653,1064.168701 15.131783,1052.923340 
	C10.871529,1050.388672 6.648703,1047.791016 2.120130,1045.009399 
	C4.239484,1043.233276 6.493789,1041.333008 9.077600,1040.156128 
	C84.218636,1005.930237 159.394714,971.781250 234.560730,937.610168 
	C364.285278,878.636353 494.006744,819.655701 623.731628,760.682678 
	C625.093567,760.063599 626.484558,759.508362 628.204468,758.868347 
	C628.771790,758.839966 628.996521,758.866577 629.557861,758.932251 
	C629.898865,974.363831 629.902649,1189.756226 629.914062,1405.148682 
	C629.914246,1408.145630 630.009949,1411.142578 630.121582,1414.611816 
z"/>
</svg>